<?xml version="1.0" encoding="UTF-8" standalone="no"?>
<!-- Generator: Adobe Illustrator 19.0.0, SVG Export Plug-In . SVG Version: 6.00 Build 0)  -->

<svg
   version="1.1"
   id="Capa_1"
   x="0px"
   y="0px"
   viewBox="0 0 480 480"
   style="enable-background:new 0 0 480 480;"
   xml:space="preserve"
   sodipodi:docname="man.svg"
   inkscape:version="1.2 (dc2aedaf03, 2022-05-15)"
   xmlns:inkscape="http://www.inkscape.org/namespaces/inkscape"
   xmlns:sodipodi="http://sodipodi.sourceforge.net/DTD/sodipodi-0.dtd"
   xmlns="http://www.w3.org/2000/svg"
   xmlns:svg="http://www.w3.org/2000/svg"><defs
   id="defs69">
	
	
	
	
	
	
</defs><sodipodi:namedview
   id="namedview67"
   pagecolor="#ffffff"
   bordercolor="#000000"
   borderopacity="0.25"
   inkscape:showpageshadow="2"
   inkscape:pageopacity="0.0"
   inkscape:pagecheckerboard="0"
   inkscape:deskcolor="#d1d1d1"
   showgrid="false"
   inkscape:zoom="1.5467961"
   inkscape:cx="219.1627"
   inkscape:cy="239.85062"
   inkscape:window-width="1920"
   inkscape:window-height="1017"
   inkscape:window-x="1358"
   inkscape:window-y="-8"
   inkscape:window-maximized="1"
   inkscape:current-layer="Capa_1" />
<g
   id="g4">
		<circle
   style="fill:#d7f3fe;fill-opacity:1"
   cx="240"
   cy="240"
   r="240"
   id="circle2" />
	</g><g
   id="g10">
		<g
   id="g8">
			<path
   style="fill:#ffffff"
   d="m 240,360.07 c -27.944,0 -53.297,-11.991 -72.003,-31.372 -0.014,11.615 -0.436,28.379 -3.516,40.611 2.02,1.235 3.588,3.262 3.894,5.784 3.992,32.484 34.781,56.977 71.625,56.977 36.836,0 67.625,-24.496 71.625,-56.977 0.31,-2.525 1.844,-4.549 3.895,-5.78 -3.08,-12.233 -3.503,-28.999 -3.517,-40.615 C 293.297,348.079 267.944,360.07 240,360.07 Z"
   id="path6" />
		</g>
	</g><g
   id="g16">
		<g
   id="g14">
			<path
   style="fill:#d7dbe0"
   d="m 310.44,330.174 c -18.549,18.477 -43.242,29.896 -70.44,29.896 -27.944,0 -53.297,-11.991 -72.003,-31.372 -0.014,11.615 -0.436,28.379 -3.516,40.611 2.02,1.235 3.588,3.262 3.894,5.784 1.765,14.359 8.778,27.144 19.223,36.954 48.168,-6.782 102.839,-54.345 122.842,-81.873 z"
   id="path12" />
		</g>
	</g><g
   id="g22">
		<g
   id="g20">
			<path
   style="fill:#ffffff"
   d="m 247.99999,117.09857 -21.02857,-10e-6 C 154.88146,117.09854 136,178.015 136,200.07 v 48 c 0,61.758 46.656,112 104,112 57.344,0 104,-50.242 104,-112 v -56 c 0,-17.644 -13.99086,-74.97141 -96.00001,-74.97143 z"
   id="path18"
   sodipodi:nodetypes="ssssssss" />
		</g>
	</g><g
   id="g32">
		<path
   style="fill:#023d74;fill-opacity:1"
   d="M 61.632,400.544 C 105.562,449.319 169.191,480 240,480 c 70.809,0 134.438,-30.681 178.368,-79.456 -7.66,-10.356 -18.462,-18.77 -32.352,-22.659 -0.32,-0.09 -0.641,-0.16 -0.969,-0.207 l -63.859,-9.582 c -0.391,-0.059 -1.227,-0.09 -1.625,-0.09 -4.039,0 -7.445,3.012 -7.938,7.023 -4,32.48 -34.789,56.977 -71.625,56.977 -36.844,0 -67.633,-24.492 -71.625,-56.977 -0.5,-4.129 -4.219,-7.234 -8.141,-7.02 -0.469,-0.027 -0.93,0.012 -1.422,0.086 l -63.859,9.582 c -0.328,0.047 -0.648,0.117 -0.969,0.207 -13.89,3.891 -24.692,12.304 -32.352,22.66 z"
   id="path30" />
	</g>
<g
   id="g36">
</g>
<g
   id="g38">
</g>
<g
   id="g40">
</g>
<g
   id="g42">
</g>
<g
   id="g44">
</g>
<g
   id="g46">
</g>
<g
   id="g48">
</g>
<g
   id="g50">
</g>
<g
   id="g52">
</g>
<g
   id="g54">
</g>
<g
   id="g56">
</g>
<g
   id="g58">
</g>
<g
   id="g60">
</g>
<g
   id="g62">
</g>
<g
   id="g64">
</g>
</svg>
